<svg width="24" height="24" viewBox="0 0 24 24" fill="none" xmlns="http://www.w3.org/2000/svg">
<path d="M19.4396 12.9999C19.2196 12.9999 18.9896 12.9299 18.7696 12.8799C18.3241 12.7817 17.8863 12.6514 17.4596 12.4899C16.9957 12.3211 16.4858 12.3299 16.0279 12.5145C15.5701 12.6991 15.1967 13.0465 14.9796 13.4899L14.7596 13.9399C13.7856 13.398 12.8906 12.7251 12.0996 11.9399C11.3144 11.1489 10.6414 10.2539 10.0996 9.27987L10.5196 8.99987C10.963 8.78278 11.3104 8.4094 11.495 7.95156C11.6796 7.49372 11.6884 6.98378 11.5196 6.51987C11.3608 6.09229 11.2305 5.65467 11.1296 5.20987C11.0796 4.98987 11.0396 4.75987 11.0096 4.52987C10.8882 3.82549 10.5192 3.18761 9.96923 2.73111C9.41923 2.2746 8.72431 2.02948 8.00961 2.03987H5.00961C4.57864 2.03582 4.15186 2.12468 3.75832 2.3004C3.36478 2.47612 3.01372 2.73456 2.72904 3.05815C2.44436 3.38174 2.23275 3.76286 2.1086 4.17558C1.98445 4.5883 1.95069 5.02293 2.00961 5.44987C2.54235 9.63925 4.45564 13.5317 7.44726 16.5125C10.4389 19.4933 14.3383 21.3924 18.5296 21.9099H18.9096C19.647 21.911 20.359 21.6404 20.9096 21.1499C21.226 20.8669 21.4787 20.52 21.6511 20.1322C21.8235 19.7443 21.9116 19.3243 21.9096 18.8999V15.8999C21.8974 15.2053 21.6444 14.5364 21.194 14.0075C20.7435 13.4786 20.1234 13.1225 19.4396 12.9999V12.9999ZM19.9396 18.9999C19.9394 19.1419 19.909 19.2822 19.8504 19.4115C19.7918 19.5408 19.7063 19.6562 19.5996 19.7499C19.4879 19.8463 19.3572 19.9184 19.216 19.9615C19.0748 20.0045 18.9262 20.0176 18.7796 19.9999C15.0345 19.5197 11.5558 17.8064 8.89233 15.1302C6.22881 12.454 4.53202 8.96721 4.06961 5.21987C4.0537 5.07339 4.06765 4.9252 4.11061 4.78426C4.15358 4.64332 4.22468 4.51256 4.31961 4.39987C4.41332 4.2932 4.52867 4.20771 4.65799 4.14909C4.78731 4.09046 4.92763 4.06005 5.06961 4.05987H8.06961C8.30216 4.05469 8.52924 4.13075 8.71176 4.27494C8.89428 4.41913 9.02082 4.62244 9.06961 4.84987C9.10961 5.1232 9.15961 5.3932 9.21961 5.65987C9.33513 6.18701 9.48887 6.70505 9.67961 7.20987L8.27961 7.85987C8.15991 7.91479 8.05223 7.99281 7.96277 8.08946C7.87331 8.18611 7.80381 8.29948 7.75828 8.42306C7.71275 8.54664 7.69208 8.678 7.69746 8.80959C7.70284 8.94118 7.73415 9.07041 7.78961 9.18987C9.22881 12.2726 11.7069 14.7507 14.7896 16.1899C15.0331 16.2899 15.3062 16.2899 15.5496 16.1899C15.6743 16.1453 15.7889 16.0763 15.8868 15.9871C15.9846 15.8978 16.0638 15.79 16.1196 15.6699L16.7396 14.2699C17.2566 14.4547 17.7842 14.6084 18.3196 14.7299C18.5863 14.7899 18.8563 14.8399 19.1296 14.8799C19.357 14.9287 19.5604 15.0552 19.7045 15.2377C19.8487 15.4202 19.9248 15.6473 19.9196 15.8799L19.9396 18.9999ZM21.8596 2.67987C21.7581 2.43552 21.564 2.24134 21.3196 2.13987C21.1994 2.08863 21.0703 2.06145 20.9396 2.05987H16.9396C16.6744 2.05987 16.42 2.16522 16.2325 2.35276C16.045 2.5403 15.9396 2.79465 15.9396 3.05987C15.9396 3.32508 16.045 3.57944 16.2325 3.76697C16.42 3.95451 16.6744 4.05987 16.9396 4.05987H18.5196L15.2296 7.35987C15.0434 7.54723 14.9388 7.80068 14.9388 8.06487C14.9388 8.32905 15.0434 8.58251 15.2296 8.76987C15.417 8.95612 15.6704 9.06066 15.9346 9.06066C16.1988 9.06066 16.4522 8.95612 16.6396 8.76987L19.9396 5.47987V7.05987C19.9396 7.32508 20.045 7.57944 20.2325 7.76697C20.42 7.95451 20.6744 8.05987 20.9396 8.05987C21.2048 8.05987 21.4592 7.95451 21.6467 7.76697C21.8343 7.57944 21.9396 7.32508 21.9396 7.05987V3.05987C21.938 2.92919 21.9109 2.80009 21.8596 2.67987V2.67987Z" fill="white"/>
</svg>
