<svg width="20" height="20" viewBox="0 0 20 20" fill="none" xmlns="http://www.w3.org/2000/svg">
<path d="M10.75 1C10.75 0.585786 10.4142 0.25 10 0.25C9.5858 0.25 9.25001 0.585786 9.25001 1V13.8105C8.92735 13.483 8.54376 13.001 7.98554 12.297L6.58769 10.534C6.33034 10.2095 5.85861 10.155 5.53404 10.4123C5.20947 10.6697 5.15498 11.1414 5.41232 11.466L6.83857 13.2648C7.37175 13.9372 7.81172 14.4922 8.20552 14.8875C8.60963 15.2932 9.05817 15.6294 9.63134 15.7208C9.75344 15.7402 9.87662 15.75 10 15.75C10.1234 15.75 10.2466 15.7402 10.3687 15.7208C10.9419 15.6294 11.3904 15.2932 11.7945 14.8875C12.1883 14.4922 12.6283 13.9372 13.1614 13.2648L14.5877 11.466C14.845 11.1414 14.7905 10.6697 14.466 10.4123C14.1414 10.155 13.6697 10.2095 13.4123 10.534L12.0145 12.297C11.4563 13.001 11.0727 13.483 10.75 13.8105V1Z" fill="#00ADB5"/>
<path d="M18.6 8.54957C18.3513 8.21837 17.8811 8.15156 17.5499 8.40032C17.2188 8.64909 17.1519 9.11924 17.4007 9.45043C17.9342 10.1607 18.25 11.0424 18.25 12V13C18.25 13.9577 18.2477 14.3492 18.1977 14.6648C17.9097 16.4834 16.4834 17.9096 14.6649 18.1977C14.3492 18.2477 13.9577 18.25 13 18.25H7.00001C6.04234 18.25 5.65083 18.2477 5.33516 18.1977C3.51662 17.9096 2.09036 16.4834 1.80233 14.6648C1.75234 14.3492 1.75001 13.9577 1.75001 13V12C1.75001 11.0424 2.06583 10.1607 2.59932 9.45043C2.84808 9.11924 2.78127 8.64909 2.45008 8.40032C2.11888 8.15156 1.64874 8.21838 1.39997 8.54957C0.678072 9.51065 0.250008 10.7064 0.250008 12L0.250004 13.0808C0.249937 13.9328 0.249895 14.4518 0.3208 14.8995C0.710487 17.3599 2.64013 19.2895 5.10051 19.6792C5.54819 19.7501 6.06718 19.7501 6.91921 19.75H13.0808C13.9328 19.7501 14.4518 19.7501 14.8995 19.6792C17.3599 19.2895 19.2895 17.3599 19.6792 14.8995C19.7501 14.4518 19.7501 13.9328 19.75 13.0808L19.75 12C19.75 10.7064 19.3219 9.51065 18.6 8.54957Z" fill="#00ADB5"/>
</svg>
