<svg width="16" height="16" viewBox="0 0 16 16" fill="none" xmlns="http://www.w3.org/2000/svg">
<g clip-path="url(#clip0_149_1256)">
<path d="M15.448 7.72398C15.448 3.45814 11.9898 0 7.72398 0C3.45814 0 0 3.45814 0 7.72398C0 11.5792 2.82453 14.7747 6.51711 15.3541V9.95669H4.55594V7.72398H6.51711V6.02229C6.51711 4.08647 7.67027 3.01718 9.43457 3.01718C10.2794 3.01718 11.1636 3.16804 11.1636 3.16804V5.06886H10.1896C9.23015 5.06886 8.93085 5.6643 8.93085 6.27573V7.72398H11.073L10.7306 9.95669H8.93085V15.3541C12.6234 14.7747 15.448 11.5792 15.448 7.72398Z" fill="white"/>
</g>
<defs>
<clipPath id="clip0_149_1256">
<rect width="15.448" height="15.448" fill="white"/>
</clipPath>
</defs>
</svg>
