<svg width="16" height="16" viewBox="0 0 16 16" fill="none" xmlns="http://www.w3.org/2000/svg">
<g clip-path="url(#clip0_149_1250)">
<path d="M7.72398 1.73479C9.78773 1.73479 10.0321 1.74384 10.8437 1.78005C11.598 1.81324 12.0054 1.93996 12.2769 2.04556C12.6359 2.18435 12.8954 2.35331 13.164 2.62184C13.4355 2.89339 13.6014 3.14985 13.7402 3.50889C13.8458 3.78044 13.9726 4.19078 14.0057 4.94205C14.042 5.75669 14.051 6.00108 14.051 8.06182C14.051 10.1256 14.042 10.37 14.0057 11.1816C13.9726 11.9359 13.8458 12.3432 13.7402 12.6147C13.6014 12.9738 13.4325 13.2333 13.164 13.5018C12.8924 13.7733 12.6359 13.9393 12.2769 14.0781C12.0054 14.1837 11.595 14.3104 10.8437 14.3436C10.0291 14.3798 9.78471 14.3888 7.72398 14.3888C5.66023 14.3888 5.41584 14.3798 4.60422 14.3436C3.84992 14.3104 3.4426 14.1837 3.17106 14.0781C2.81201 13.9393 2.55253 13.7703 2.284 13.5018C2.01246 13.2302 1.84651 12.9738 1.70772 12.6147C1.60212 12.3432 1.4754 11.9329 1.44221 11.1816C1.40601 10.3669 1.39695 10.1225 1.39695 8.06182C1.39695 5.99807 1.40601 5.75367 1.44221 4.94205C1.4754 4.18776 1.60212 3.78044 1.70772 3.50889C1.84651 3.14985 2.01548 2.89037 2.284 2.62184C2.55555 2.3503 2.81201 2.18435 3.17106 2.04556C3.4426 1.93996 3.85294 1.81324 4.60422 1.78005C5.41584 1.74384 5.66023 1.73479 7.72398 1.73479ZM7.72398 0.343872C5.62704 0.343872 5.36454 0.352924 4.54085 0.38913C3.72018 0.425336 3.15597 0.558092 2.66719 0.748174C2.15728 0.947308 1.72583 1.2098 1.29739 1.64126C0.86593 2.0697 0.603436 2.50116 0.404302 3.00804C0.21422 3.49984 0.0814638 4.06104 0.0452577 4.88171C0.00905154 5.70842 0 5.97091 0 8.06785C0 10.1648 0.00905154 10.4273 0.0452577 11.251C0.0814638 12.0716 0.21422 12.6359 0.404302 13.1246C0.603436 13.6345 0.86593 14.066 1.29739 14.4944C1.72583 14.9229 2.15728 15.1884 2.66417 15.3845C3.15597 15.5746 3.71716 15.7073 4.53784 15.7436C5.36153 15.7798 5.62402 15.7888 7.72096 15.7888C9.8179 15.7888 10.0804 15.7798 10.9041 15.7436C11.7248 15.7073 12.289 15.5746 12.7778 15.3845C13.2846 15.1884 13.7161 14.9229 14.1445 14.4944C14.573 14.066 14.8385 13.6345 15.0346 13.1277C15.2247 12.6359 15.3574 12.0747 15.3936 11.254C15.4299 10.4303 15.4389 10.1678 15.4389 8.07087C15.4389 5.97393 15.4299 5.71143 15.3936 4.88774C15.3574 4.06707 15.2247 3.50286 15.0346 3.01408C14.8445 2.50115 14.582 2.0697 14.1506 1.64126C13.7221 1.21282 13.2907 0.947308 12.7838 0.751191C12.292 0.561109 11.7308 0.428353 10.9101 0.392147C10.0834 0.352924 9.82092 0.343872 7.72398 0.343872Z" fill="white"/>
<path d="M7.72443 4.10022C5.53395 4.10022 3.75684 5.87734 3.75684 8.06781C3.75684 10.2583 5.53395 12.0354 7.72443 12.0354C9.9149 12.0354 11.692 10.2583 11.692 8.06781C11.692 5.87734 9.9149 4.10022 7.72443 4.10022ZM7.72443 10.6415C6.30333 10.6415 5.15077 9.4889 5.15077 8.06781C5.15077 6.64672 6.30333 5.49416 7.72443 5.49416C9.14552 5.49416 10.2981 6.64672 10.2981 8.06781C10.2981 9.4889 9.14552 10.6415 7.72443 10.6415Z" fill="white"/>
<path d="M12.7754 3.9433C12.7754 4.45622 12.359 4.86958 11.8491 4.86958C11.3362 4.86958 10.9229 4.45321 10.9229 3.9433C10.9229 3.43038 11.3392 3.01703 11.8491 3.01703C12.359 3.01703 12.7754 3.4334 12.7754 3.9433Z" fill="white"/>
</g>
<defs>
<clipPath id="clip0_149_1250">
<rect width="15.448" height="15.448" fill="white" transform="translate(0 0.343872)"/>
</clipPath>
</defs>
</svg>
