<svg width="16" height="17" viewBox="0 0 16 17" fill="none" xmlns="http://www.w3.org/2000/svg">
<g clip-path="url(#clip0_149_1248)">
<path d="M14.3044 0.895935H1.14049C0.509903 0.895935 0 1.39377 0 2.00927V15.2275C0 15.843 0.509903 16.3439 1.14049 16.3439H14.3044C14.935 16.3439 15.448 15.843 15.448 15.2306V2.00927C15.448 1.39377 14.935 0.895935 14.3044 0.895935ZM4.58309 14.0599H2.29004V6.6859H4.58309V14.0599ZM3.43657 5.68118C2.70038 5.68118 2.10599 5.0868 2.10599 4.35362C2.10599 3.62045 2.70038 3.02606 3.43657 3.02606C4.16974 3.02606 4.76413 3.62045 4.76413 4.35362C4.76413 5.08378 4.16974 5.68118 3.43657 5.68118ZM13.164 14.0599H10.8739V10.4755C10.8739 9.62162 10.8588 8.52035 9.68213 8.52035C8.49034 8.52035 8.30931 9.45265 8.30931 10.4151V14.0599H6.02229V6.6859H8.21879V7.69364H8.24897C8.5537 7.11434 9.30196 6.50185 10.4153 6.50185C12.7355 6.50185 13.164 8.02855 13.164 10.0139V14.0599Z" fill="white"/>
</g>
<defs>
<clipPath id="clip0_149_1248">
<rect width="15.448" height="15.448" fill="white" transform="translate(0 0.895935)"/>
</clipPath>
</defs>
</svg>
