<svg width="20" height="21" viewBox="0 0 20 21" fill="none" xmlns="http://www.w3.org/2000/svg">
<path d="M14.5846 10.2927C14.5461 10.1935 14.4884 10.1028 14.4148 10.026L10.3731 5.98431C10.2978 5.90894 10.2083 5.84915 10.1098 5.80836C10.0113 5.76758 9.9058 5.74658 9.79922 5.74658C9.58396 5.74658 9.37751 5.83209 9.2253 5.98431C9.14993 6.05967 9.09015 6.14915 9.04936 6.24762C9.00857 6.34609 8.98758 6.45164 8.98758 6.55822C8.98758 6.77348 9.07309 6.97993 9.2253 7.13214L11.8928 9.79156H5.75755C5.54317 9.79156 5.33757 9.87672 5.18597 10.0283C5.03438 10.1799 4.94922 10.3855 4.94922 10.5999C4.94922 10.8143 5.03438 11.0199 5.18597 11.1715C5.33757 11.3231 5.54317 11.4082 5.75755 11.4082H11.8928L9.2253 14.0676C9.14954 14.1428 9.0894 14.2322 9.04836 14.3307C9.00733 14.4292 8.9862 14.5348 8.9862 14.6416C8.9862 14.7483 9.00733 14.8539 9.04836 14.9524C9.0894 15.0509 9.14954 15.1403 9.2253 15.2155C9.30045 15.2912 9.38985 15.3514 9.48835 15.3924C9.58685 15.4334 9.69251 15.4546 9.79922 15.4546C9.90593 15.4546 10.0116 15.4334 10.1101 15.3924C10.2086 15.3514 10.298 15.2912 10.3731 15.2155L14.4148 11.1738C14.4884 11.0969 14.5461 11.0063 14.5846 10.9071C14.6654 10.7103 14.6654 10.4895 14.5846 10.2927Z" fill="#00ADB5"/>
</svg>
