<svg width="47" height="47" viewBox="0 0 47 47" fill="none" xmlns="http://www.w3.org/2000/svg">
<path d="M20.3729 11.7431C19.7477 11.1235 18.7386 11.128 18.119 11.7531C17.4994 12.3783 17.5039 13.3874 18.1291 14.007L21.8754 17.7201C23.3958 19.227 24.4387 20.2641 25.1445 21.1428C25.83 21.9964 26.0652 22.5447 26.1278 23.0357C26.1671 23.3441 26.1671 23.6561 26.1278 23.9644C26.0652 24.4554 25.83 25.0037 25.1445 25.8573C24.4388 26.7361 23.3958 27.7731 21.8754 29.2801L18.1291 32.9931C17.5039 33.6127 17.4994 34.6218 18.119 35.247C18.7386 35.8721 19.7477 35.8766 20.3729 35.257L24.1867 31.4771C25.6231 30.0535 26.7972 28.8899 27.6297 27.8532C28.4955 26.7751 29.1222 25.6809 29.2897 24.3674C29.3631 23.7915 29.3631 23.2086 29.2897 22.6327C29.1222 21.3192 28.4955 20.225 27.6297 19.1469C26.7971 18.1102 25.6232 16.9467 24.1867 15.523L20.3729 11.7431Z" fill="#00ADB5" fill-opacity="0.5"/>
<path fill-rule="evenodd" clip-rule="evenodd" d="M23.501 0.656311C10.8847 0.656311 0.657227 10.8838 0.657227 23.5001C0.657227 36.1163 10.8847 46.3438 23.501 46.3438C36.1172 46.3438 46.3447 36.1163 46.3447 23.5001C46.3447 10.8838 36.1172 0.656311 23.501 0.656311ZM3.84473 23.5001C3.84473 12.6442 12.6451 3.84381 23.501 3.84381C34.3568 3.84381 43.1572 12.6442 43.1572 23.5001C43.1572 34.3559 34.3568 43.1563 23.501 43.1563C12.6451 43.1563 3.84473 34.3559 3.84473 23.5001Z" fill="#00ADB5" fill-opacity="0.5"/>
</svg>
