<svg width="25" height="24" viewBox="0 0 25 24" fill="none" xmlns="http://www.w3.org/2000/svg">
<path d="M21.0072 9.32013L7.00724 2.32013C6.45473 2.04514 5.83086 1.94724 5.22067 2.03978C4.61049 2.13232 4.0437 2.4108 3.59757 2.83724C3.15144 3.26369 2.84769 3.81735 2.72773 4.42274C2.60777 5.02813 2.67744 5.65578 2.92724 6.22013L5.32724 11.5901C5.3817 11.72 5.40974 11.8593 5.40974 12.0001C5.40974 12.1409 5.3817 12.2803 5.32724 12.4101L2.92724 17.7801C2.72394 18.2368 2.638 18.7371 2.67722 19.2355C2.71644 19.7339 2.87958 20.2145 3.15182 20.6338C3.42406 21.0531 3.79677 21.3977 4.23606 21.6363C4.67536 21.875 5.16732 22 5.66724 22.0001C6.13547 21.9955 6.59673 21.8861 7.01724 21.6801L21.0172 14.6801C21.5138 14.4303 21.9313 14.0474 22.2229 13.5742C22.5146 13.101 22.6691 12.556 22.6691 12.0001C22.6691 11.4442 22.5146 10.8993 22.2229 10.4261C21.9313 9.95282 21.5138 9.56994 21.0172 9.32013H21.0072ZM20.1172 12.8901L6.11724 19.8901C5.9334 19.9784 5.72697 20.0084 5.52563 19.976C5.32428 19.9436 5.13765 19.8504 4.99075 19.709C4.84386 19.5675 4.74372 19.3845 4.70377 19.1846C4.66382 18.9846 4.68597 18.7772 4.76724 18.5901L7.15724 13.2201C7.18818 13.1484 7.21489 13.075 7.23724 13.0001H14.1272C14.3925 13.0001 14.6468 12.8948 14.8343 12.7072C15.0219 12.5197 15.1272 12.2653 15.1272 12.0001C15.1272 11.7349 15.0219 11.4806 14.8343 11.293C14.6468 11.1055 14.3925 11.0001 14.1272 11.0001H7.23724C7.21489 10.9253 7.18818 10.8518 7.15724 10.7801L4.76724 5.41013C4.68597 5.22309 4.66382 5.01568 4.70377 4.8157C4.74372 4.61572 4.84386 4.43273 4.99075 4.29128C5.13765 4.14982 5.32428 4.05666 5.52563 4.02428C5.72697 3.9919 5.9334 4.02186 6.11724 4.11013L20.1172 11.1101C20.281 11.194 20.4185 11.3215 20.5145 11.4786C20.6105 11.6356 20.6613 11.8161 20.6613 12.0001C20.6613 12.1842 20.6105 12.3647 20.5145 12.5217C20.4185 12.6787 20.281 12.8062 20.1172 12.8901Z" fill="white"/>
</svg>
